<?xml version="1.0" encoding="UTF-8"?>
<svg width="1200pt" height="1200pt" version="1.1" viewBox="0 0 1200 1200" xmlns="http://www.w3.org/2000/svg">
 <path d="m1066.8 446.4c-50.398-21.602-93.602-48-133.2-74.398 28.801-63.602 8.3984-135.6-48-163.2-49.199-24-109.2-3.6016-144 44.398-48-21.602-102-34.801-166.8-34.801-253.2 0-351.6 214.8-360 426h-79.199c-57.602 0-105.6 46.801-105.6 105.6 0 57.602 46.801 105.6 105.6 105.6h332.4c21.602 0 38.398 16.801 38.398 40.801 0 21.602-16.801 38.398-38.398 38.398h-135.6c-18 0-33.602 14.398-33.602 33.602 0 19.199 14.398 33.602 33.602 33.602l135.6-0.003906c57.602 0 105.6-46.801 105.6-106.8 0-57.602-46.801-105.6-105.6-105.6l-332.4 0.003906c-21.602 0-38.398-16.801-38.398-38.398 0-21.602 16.801-38.398 38.398-38.398h892.8c70.801 0 127.2-42 140.4-104.4 8.3984-51.605-12-123.61-102-162.01zm36 147.6c-4.8008 24-27.602 51.602-75.602 51.602h-399.6c-12-132-94.801-177.6-140.4-182.4-18-2.3984-33.602 10.801-36 28.801s10.801 34.801 28.801 37.199c8.3984 1.1992 70.801 14.398 82.801 117.6l-283.2-0.003907c6-116.4 48-360 294-360 54 0 99.602 12 140.4 30-2.3984 10.801-2.3984 22.801-1.1992 34.801 1.1992 18 18 32.398 36 30 18-1.1992 32.398-18 30-36-1.1992-13.199 1.1992-26.398 7.1992-38.398 14.398-31.199 46.801-46.801 69.602-36 22.801 10.801 30 45.602 15.602 76.801-6 12-14.398 21.602-24 28.801-14.398 10.801-18 31.199-7.1992 46.801 6 9.6016 16.801 14.398 26.398 14.398 7.1992 0 13.199-2.3984 19.199-6 2.3984-1.1992 3.6016-2.3984 4.8008-4.8008 44.398 30 91.199 58.801 148.8 82.801 55.195 20.395 68.398 56.395 63.598 83.996z"/>
 <path d="m868.8 465.6c-24 0-43.199 19.199-43.199 43.199s19.199 43.199 43.199 43.199 43.199-19.199 43.199-43.199-19.199-43.199-43.199-43.199z"/>
</svg>
