<?xml version="1.0" encoding="UTF-8"?>
<svg width="1200pt" height="1200pt" version="1.1" viewBox="0 0 1200 1200" xmlns="http://www.w3.org/2000/svg">
 <path d="m346.87 1052.2h-96.703c-6.3281 0-11.719-5.1094-11.719-11.719v-374.02c0-6.3281 5.1094-11.719 11.719-11.719h96.703c6.3281 0 11.719 5.1094 11.719 11.719v374.02c-0.23438 6.3281-5.3906 11.719-11.719 11.719zm-84.984-23.203h73.5v-350.81h-73.5z" fill-rule="evenodd"/>
 <path d="m559.5 1052.2h-96.703c-6.3281 0-11.719-5.1094-11.719-11.719v-503.16c0-6.3281 5.1094-11.719 11.719-11.719h96.703c6.3281 0 11.719 5.1094 11.719 11.719v503.16c0 6.3281-5.3906 11.719-11.719 11.719zm-84.984-23.203h73.5v-480h-73.5z" fill-rule="evenodd"/>
 <path d="m772.4 1052.2h-96.703c-6.3281 0-11.719-5.1094-11.719-11.719v-625.5c0-6.3281 5.1094-11.719 11.719-11.719h96.703c6.3281 0 11.719 5.1094 11.719 11.719v625.5c-0.23438 6.3281-5.3906 11.719-11.719 11.719zm-85.219-23.203h73.5v-602.29h-73.5z" fill-rule="evenodd"/>
 <path d="m985.31 1052.2h-96.703c-6.3281 0-11.719-5.1094-11.719-11.719v-748.03c0-6.3281 5.1094-11.719 11.719-11.719h96.703c6.3281 0 11.719 5.1094 11.719 11.719v748.03c-0.23438 6.3281-5.3906 11.719-11.719 11.719zm-84.938-23.203h73.5v-724.87h-73.5z" fill-rule="evenodd"/>
 <path d="m214.55 504.1c-5.8594 0-10.734-4.1719-11.484-10.031-0.75-6.3281 3.6562-12.188 10.031-12.938l16.125-2.2031c204.1-26.859 397.45-120.84 544.18-264.89 4.6406-4.4062 11.953-4.4062 16.359 0.23438 4.4062 4.6406 4.4062 11.953-0.23438 16.359-75.422 73.969-161.63 134.76-256.6 180.89s-196.03 76.641-301.03 90.328l-16.125 2.2031h-1.2188z" fill-rule="evenodd"/>
 <path d="m813.66 274.82c-3.6562 0-6.8438-1.6875-9.2812-4.4062l-68.859-88.641c-2.4375-3.1875-3.1875-7.5469-1.4531-11.484 1.6875-3.8906 5.1094-6.6094 9.2812-7.0781l111.09-15.375c4.1719-0.46875 8.2969 1.2188 10.734 4.4062s3.1875 7.5469 1.4531 11.484l-42.234 104.02c-1.4531 3.8906-5.1094 6.6094-9.2812 7.0781zm-47.344-91.547 44.203 56.906 27.094-66.656z" fill-rule="evenodd"/>
</svg>
